ffmpeg version 4.2.7-0ubuntu0.1 Copyright (c) 2000-2022 the FFmpeg developers
  built with gcc 9 (Ubuntu 9.4.0-1ubuntu1~20.04.1)
  configuration: --prefix=/usr --extra-version=0ubuntu0.1 --toolchain=hardened --libdir=/usr/lib/x86_64-linux-gnu --incdir=/usr/include/x86_64-linux-gnu --arch=amd64 --enable-gpl --disable-stripping --enable-avresample --disable-filter=resample --enable-avisynth --enable-gnutls --enable-ladspa --enable-libaom --enable-libass --enable-libbluray --enable-libbs2b --enable-libcaca --enable-libcdio --enable-libcodec2 --enable-libflite --enable-libfontconfig --enable-libfreetype --enable-libfribidi --enable-libgme --enable-libgsm --enable-libjack --enable-libmp3lame --enable-libmysofa --enable-libopenjpeg --enable-libopenmpt --enable-libopus --enable-libpulse --enable-librsvg --enable-librubberband --enable-libshine --enable-libsnappy --enable-libsoxr --enable-libspeex --enable-libssh --enable-libtheora --enable-libtwolame --enable-libvidstab --enable-libvorbis --enable-libvpx --enable-libwavpack --enable-libwebp --enable-libx265 --enable-libxml2 --enable-libxvid --enable-libzmq --enable-libzvbi --enable-lv2 --enable-omx --enable-openal --enable-opencl --enable-opengl --enable-sdl2 --enable-libdc1394 --enable-libdrm --enable-libiec61883 --enable-nvenc --enable-chromaprint --enable-frei0r --enable-libx264 --enable-shared
  libavutil      56. 31.100 / 56. 31.100
  libavcodec     58. 54.100 / 58. 54.100
  libavformat    58. 29.100 / 58. 29.100
  libavdevice    58.  8.100 / 58.  8.100
  libavfilter     7. 57.100 /  7. 57.100
  libavresample   4.  0.  0 /  4.  0.  0
  libswscale      5.  5.100 /  5.  5.100
  libswresample   3.  5.100 /  3.  5.100
  libpostproc    55.  5.100 / 55.  5.100
[rawvideo @ 0x55ebbc862780] Estimating duration from bitrate, this may be inaccurate
Input #0, rawvideo, from 'output.yuv':
  Duration: 00:00:04.80, start: 0.000000, bitrate: 2488320 kb/s
    Stream #0:0: Video: rawvideo (I420 / 0x30323449), yuv420p, 3840x2160, 2488320 kb/s, 25 tbr, 25 tbn, 25 tbc
Stream mapping:
  Stream #0:0 -> #0:0 (rawvideo (native) -> h264 (libx264))
Press [q] to stop, [?] for help
[libx264 @ 0x55ebbc867d80] using cpu capabilities: MMX2 SSE2Fast SSSE3 SSE4.2 AVX
[libx264 @ 0x55ebbc867d80] profile High, level 5.1
Output #0, h264, to 'output_h264.264':
  Metadata:
    encoder         : Lavf58.29.100
    Stream #0:0: Video: h264 (libx264), yuv420p, 3840x2160, q=-1--1, 30 fps, 30 tbn, 30 tbc
    Metadata:
      encoder         : Lavc58.54.100 libx264
    Side data:
      cpb: bitrate max/min/avg: 0/0/0 buffer size: 0 vbv_delay: -1
frame=   24 fps=0.0 q=0.0 size=       0kB time=00:00:00.00 bitrate=N/A speed=   0x    frame=   47 fps= 11 q=0.0 size=       0kB time=00:00:00.00 bitrate=N/A speed=   0x    frame=   52 fps= 11 q=0.0 size=       0kB time=00:00:00.00 bitrate=N/A speed=   0x    frame=   59 fps= 11 q=29.0 size=     512kB time=00:00:00.03 bitrate=125830.4kbits/s speed=0.00597x    frame=   63 fps= 10 q=29.0 size=     768kB time=00:00:00.16 bitrate=37748.7kbits/s speed=0.0267x    frame=   65 fps=9.5 q=29.0 size=     768kB time=00:00:00.23 bitrate=26963.4kbits/s speed=0.0343x    frame=   67 fps=8.5 q=29.0 size=    1024kB time=00:00:00.30 bitrate=27962.0kbits/s speed=0.0379x    frame=   72 fps=8.4 q=29.0 size=    1280kB time=00:00:00.46 bitrate=22469.5kbits/s speed=0.0545x    frame=   76 fps=8.3 q=29.0 size=    1536kB time=00:00:00.60 bitrate=20971.5kbits/s speed=0.0656x    frame=   79 fps=7.9 q=29.0 size=    1792kB time=00:00:00.70 bitrate=20971.5kbits/s speed=0.0701x    frame=   80 fps=7.5 q=29.0 size=    1792kB time=00:00:00.73 bitrate=20018.3kbits/s speed=0.0692x    frame=   86 fps=7.7 q=29.0 size=    2304kB time=00:00:00.93 bitrate=20222.5kbits/s speed=0.0841x    frame=   88 fps=7.4 q=29.0 size=    2304kB time=00:00:01.00 bitrate=18874.4kbits/s speed=0.0845x    frame=   91 fps=7.4 q=29.0 size=    2560kB time=00:00:01.10 bitrate=19065.0kbits/s speed=0.089x    frame=   99 fps=7.1 q=29.0 size=    3072kB time=00:00:01.36 bitrate=18414.0kbits/s speed=0.0987x    frame=  103 fps=7.2 q=29.0 size=    3328kB time=00:00:01.50 bitrate=18175.3kbits/s speed=0.104x    frame=  111 fps=7.0 q=29.0 size=    3840kB time=00:00:01.76 bitrate=17806.0kbits/s speed=0.112x    frame=  115 fps=6.8 q=29.0 size=    4096kB time=00:00:01.90 bitrate=17660.2kbits/s speed=0.112x    frame=  118 fps=5.7 q=29.0 size=    4352kB time=00:00:02.00 bitrate=17825.8kbits/s speed=0.0966x    frame=  120 fps=2.4 q=-1.0 Lsize=    8329kB time=00:00:03.93 bitrate=17347.6kbits/s speed=0.0773x    
video:8329kB audio:0kB subtitle:0kB other streams:0kB global headers:0kB muxing overhead: 0.000000%
[libx264 @ 0x55ebbc867d80] frame I:1     Avg QP:25.05  size:355124
[libx264 @ 0x55ebbc867d80] frame P:30    Avg QP:25.14  size:141838
[libx264 @ 0x55ebbc867d80] frame B:89    Avg QP:27.60  size: 44033
[libx264 @ 0x55ebbc867d80] consecutive B-frames:  0.8%  0.0%  2.5% 96.7%
[libx264 @ 0x55ebbc867d80] mb I  I16..4:  9.3% 75.0% 15.7%
[libx264 @ 0x55ebbc867d80] mb P  I16..4:  1.7% 10.7%  1.8%  P16..4: 40.6% 12.3%  5.2%  0.0%  0.0%    skip:27.6%
[libx264 @ 0x55ebbc867d80] mb B  I16..4:  0.1%  0.8%  0.1%  B16..8: 39.1%  4.2%  0.9%  direct: 1.1%  skip:53.7%  L0:45.6% L1:51.3% BI: 3.1%
[libx264 @ 0x55ebbc867d80] 8x8 transform intra:75.3% inter:86.3%
[libx264 @ 0x55ebbc867d80] coded y,uvDC,uvAC intra: 66.8% 67.0% 29.6% inter: 12.6% 10.3% 0.3%
[libx264 @ 0x55ebbc867d80] i16 v,h,dc,p: 14% 10%  2% 73%
[libx264 @ 0x55ebbc867d80] i8 v,h,dc,ddl,ddr,vr,hd,vl,hu: 19% 11%  8%  7% 11% 14% 10% 11%  8%
[libx264 @ 0x55ebbc867d80] i4 v,h,dc,ddl,ddr,vr,hd,vl,hu: 25% 12%  8%  7% 13% 14%  9%  8%  4%
[libx264 @ 0x55ebbc867d80] i8c dc,h,v,p: 52% 16% 23%  9%
[libx264 @ 0x55ebbc867d80] Weighted P-Frames: Y:0.0% UV:0.0%
[libx264 @ 0x55ebbc867d80] ref P L0: 58.2% 21.6% 14.2%  6.1%
[libx264 @ 0x55ebbc867d80] ref B L0: 94.9%  3.8%  1.3%
[libx264 @ 0x55ebbc867d80] ref B L1: 96.8%  3.2%
[libx264 @ 0x55ebbc867d80] kb/s:17058.44
